<svg id="Layer_1" data-name="Layer 1" xmlns="http://www.w3.org/2000/svg" viewBox="0 0 83.2 83.2"><defs><style>.cls-1{fill:#001533;}.cls-2{fill:#fff;}</style></defs><path class="cls-1" d="M918.41,540c0-9.88,0-19.77,0-29.66,0-7.86,3.68-11.65,11.39-11.67q30.15-.08,60.31,0c7.73,0,11.42,3.79,11.44,11.63q.06,29.91,0,59.82c0,8-3.72,11.67-11.9,11.69q-29.65,0-59.32,0c-8.38,0-11.9-3.63-11.93-12.15C918.39,559.74,918.41,549.86,918.41,540Z" transform="translate(-918.4 -498.6)"/><path class="cls-2" d="M960.3,526.1l24,24.22c1,1.27,1,2.67.42,3.17s-1.86.12-2.45-.15a3.82,3.82,0,0,1-.75-.46c-5.93-5.72-11.69-11.6-17.52-17.41-1.14-1.15-2.34-2.23-4-3.8l-19.47,19.76-2.92,2.63a2,2,0,0,1-2.4-.32,2.21,2.21,0,0,1-.13-2.22,2.93,2.93,0,0,1,.94-1.12Z" transform="translate(-918.4 -498.6)"/><path class="cls-2" d="M960.26,526.1l-24,24.22c-1,1.27-1,2.67-.41,3.17s1.85.12,2.44-.15a3.24,3.24,0,0,0,.75-.46c5.93-5.72,11.69-11.6,17.52-17.41,1.15-1.15,2.35-2.23,4-3.8L980,551.43l2.92,2.63a2,2,0,0,0,2.39-.32,2.16,2.16,0,0,0,.13-2.22,2.94,2.94,0,0,0-.93-1.12Z" transform="translate(-918.4 -498.6)"/></svg>