<svg xmlns="http://www.w3.org/2000/svg" viewBox="0 0 165.94 177.28"><defs><style>.cls-1{fill:#fff;}</style></defs><g id="Layer_2" data-name="Layer 2"><g id="Layer_1-2" data-name="Layer 1"><path class="cls-1" d="M95.1,81.89c10.05-13.14,7-32.65-5.89-43.07C75,27.31,53.7,29,41.79,42.48,28.77,57.25,31.7,75.82,50,92.78a33.21,33.21,0,0,1-2.32,2.88c-4.69,4.73-9.35,9.5-14.18,14.09-7,6.66-5.11,8.38-13.44.27C1.38,91.87-4.26,69.65,3.17,45S28.36,5.72,53.59,1.38c24.93-4.29,47.53,1.11,65.2,20.39,20.22,22.05,21.42,56.83,3.27,80.64-.89,1.17-1.76,2.37-2.8,3.78L139,127c-17.82,5.32-30.61,4.2-42.28-8.4S73.22,94,61.48,81.73c-1.12-1.18-2.12-2.46-3.94-4.57.54.28,25.54-3.72,25.54-3.72l12,8S95.08,82.44,95.1,81.89Z"/><path class="cls-1" d="M129.6,159.05a17.69,17.69,0,0,1,18.07-18c10.28.1,18.24,7.88,18.27,17.87a18.2,18.2,0,0,1-18.46,18.31A17.86,17.86,0,0,1,129.6,159.05Z"/></g></g></svg>