<svg xmlns="http://www.w3.org/2000/svg" viewBox="0 0 1824.76 857.96"><defs><style>.cls-1{fill:#fefdfe;}.cls-2{fill:#fdfdfe;}.cls-3{fill:#fefefe;}.cls-4{fill:#01d6fe;}.cls-5{fill:#fdcf20;}.cls-6{fill:#010102;}.cls-7{fill:#793ffd;}.cls-8{fill:#020202;}.cls-9{fill:#fd64be;}.cls-10{fill:#fdb602;}.cls-11{fill:#faf7fc;}.cls-12{fill:#a770fc;}.cls-13{fill:#fdcb39;}.cls-14{fill:#02aef1;}.cls-15{fill:#a66ffe;}</style></defs><g id="Layer_2" data-name="Layer 2"><g id="Layer_1-2" data-name="Layer 1"><path class="cls-1" d="M1032,552.86q0-190.19,0-380.36c0-6.55,0-6.52,6.37-6.51,40,0,80,.19,119.94,0,5,0,5.54,1.79,5.54,6q-.15,123.45-.07,246.91c0,1.83.1,3.66.15,5.49-2.53,4.78-7,7.9-10.27,12.11-1.54,2-2.91,3.92-1.31,6.21,1.8,2.56,4.11,1.15,6.22.14l.72.63c-.68,6.21-1.82,12.37-1.33,18.67.3,3.94,1.39,7.12,5.77,8q0,125.72,0,251.44c0,2.17.1,4.33.15,6.49-.46,2.31.77,5.28-3.81,5.22-21.13-.27-42.27-.19-63.4-.24.67-.47,1.31-1,2-1.41,10.63-6.16,14.91-17.8,10.69-29.14-3.79-10.2-14.77-15.89-26.46-13.33-8.27,1.8-16.41,4.14-24.64,6.16-2.51.61-3.29,2-3.47,4.56-.4,5.79-1.15,11.56-1.89,17.32-.7,5.5-4.16,8.88-9.58,8.89q-51.91.12-103.85,0c-5.66,0-9.06-3.64-9.67-9.36-.73-6.93-1.55-13.85-2.33-20.78.11-1.93.44-3.89-1.13-6.07L921.68,694c-6.84-.57-13.27-2.91-19.86-4.55-6.78-1.68-13.2-1.21-19.18,2.52-9.51,5.92-12.31,15.32-8.77,29-4.88,2.32-10.38,3.1-15,6.17-24,6.68-48.32,12-73.35,13.36-26.8,1.5-53.48.94-80.08-3-15.49-2.27-30.51-6.5-45.63-10.33-9.11-4.37-18.78-7.39-27.87-11.87C576.65,688,540.55,645.65,528.88,584.08A233.85,233.85,0,0,1,524.79,540q.11-68.43,0-136.88,0-115.41-.12-230.81c0-5.08,1.34-6.51,6.31-6.38,11,.3,22,0,33,0,10.79,6.45,22.95,8.94,34.9,12,1.31,1.65,3.33,2.13,5.1,3q26.49,12.75,53,25.42c0,.5-.08,1-.08,1.5q0,166.61.08,333.21a128.29,128.29,0,0,0,8.31,46.36c3.53,9.17,9.42,16.73,15,24.57,2.26,3.58,6.56,4.21,9.62,6.65,0,1.46.77,1.88,2.1,1.4l0,0c0,.46-.13,1.15.1,1.33,8.18,6.25,17.13,10.88,27.37,12.73l0-.07c.92,1.46,2.6,1.47,4,1.79,26.39,6.09,52.65,6.06,78.7-1.94,12.7-5.68,24.54-13,37-19.09,3.22-1.57,2.94-2.81.48-4.63,4-5.93,8.23-11.67,11.18-18.25,7.64-17,10-35.11,10-53.51q.15-161.83,0-323.69c0-2-.13-4-.2-6,5.2-2.58,10.4-5.18,15.61-7.74l47.85-23.49c.63.19,1.35.68,1.87.51,10-3.1,20-6.29,29.92-9.44,1.38-.44,2.1-1.57,3-2.56,9.65.07,19.32.41,29,.08,4.31-.14,5.22,1.17,5.21,5.24q-.17,113.63-.08,227.25,0,17.22,0,34.46a64.15,64.15,0,0,0-15.84-.9c-17.63,1.24-34.51,13.65-39.51,28.94-1.8,5.49-1.7,11.13-1.8,16.75,0,2.65-1,3.41-3.49,3.49-6.13.22-12.26.7-18.39,1-1.88.09-3.58-.19-3.59,2.69,0,3.17,2,2.4,3.71,2.33,8.29-.32,16.57-.71,24.85-1.08-.24,7.81-.75,15.61-.69,23.42.12,13.77,8.16,21.5,21.9,21.52,3,0,6,.15,9,0,2.82-.18,3.82.83,3.74,3.68-.16,5.82,0,11.65,0,17.47-6.48.13-13,.39-19.46.35q-21-.13-29.48,18.94a67.33,67.33,0,0,0-4,10.17c-5.39,20.73-10.72,41.47-15.75,62.28a18.5,18.5,0,0,0,3.45,16.14C913.1,667,919.17,673.5,925,680.19a231.15,231.15,0,0,0-1.79-26c-.69-6.29,2.14-11.42,7.67-12,3.68-.4,3.67-2.35,4-4.86,1-8.91,2.08-17.82,3.12-26.73a227.48,227.48,0,0,1,5.49,26.85c.55,4.23,2.44,4.53,5.82,4.51,28-.09,56-.14,84,0,4.07,0,5.37-1.13,5.74-5.15.75-8.22,2.13-16.38,3.29-24.85,1.61,1,1.42,2.08,1.58,3q1.92,11.82,3.86,23.63c.23,1.39-.08,2.79,2.11,3.31,9,2.13,10.93,5,9.87,14.38q-1.38,12.07-2.71,24.15c7.25-7.6,15.44-14.26,20.59-23.43,2.67-4.76,3-10,1.33-15.48-6.08-20-11.88-40.1-18-60.1C1056.43,566.84,1048.78,555.17,1032,552.86ZM1101,236c-3.16,0-6.33,0-9.49,0-1.33,0-2.75-.11-2.76,1.92,0,8.08-5.26,12.17-11.51,16.12-12.2,7.71-17.21,19.7-14.21,33.52,2.88,13.21,11.93,20.36,24.79,22.88a52.21,52.21,0,0,0,26.63-1.26c11.42-3.75,17.9-11.49,19.18-23.62.38-3.65-.64-4.67-4.18-4.49-5.15.26-10.33.2-15.49,0-2.69-.1-4,.45-4.69,3.42-1.39,5.87-6,8.82-11.87,8.24-6-.59-9.83-4.22-10.61-10.09-1.1-8.26,2.09-14.66,8.74-19.38a112.71,112.71,0,0,0,10.19-8c4-3.63,6-8.19,7-13.44.85-4.51-.31-6.59-5.23-5.86A46.79,46.79,0,0,1,1101,236ZM587.8,526.18h9c1.54,0,3.1.06,3.17-2.15.26-7.76,5.2-11.85,11.25-15.8,11.94-7.79,17.64-19,14.56-33.35-2.83-13.16-11.72-20.4-24.58-23.18a59.1,59.1,0,0,0-19.81-.57c-14.56,1.77-24.3,10.91-26.24,24.58-.51,3.6,0,5.69,4.47,5.35a136.27,136.27,0,0,1,15,0c2.66.09,4-.41,4.8-3.43a10.93,10.93,0,0,1,12.46-8.28c6.23,1,9.79,5.22,10.18,11.66.51,8.4-3.42,14.22-10.07,18.79-7.33,5-14.49,10.28-15.92,20-.86,5.86-.5,6.35,5.24,6.38ZM587.72,556c12.2,0,12.2,0,12.2-12.05a26.91,26.91,0,0,1,0-3.48c.41-3.19-.72-4.53-4.1-4.31-4,.26-8,.06-12,.06-8,0-8,0-8,7.82C575.92,556,575.92,556,587.72,556Zm513-330c12.19,0,12.19,0,12.19-12.05,0-1.5-.1-3,0-4.49.18-2.34-.69-3.29-3.12-3.21-4.32.14-8.66,0-13,0-7.92,0-7.92,0-7.92,7.8C1088.88,226,1088.88,226,1100.69,226Zm-100.13,458.2a9.11,9.11,0,0,0-8.72-9.09,8.57,8.57,0,0,0-9.08,8.5c-.19,5.34,3.59,9.37,8.75,9.36A9.06,9.06,0,0,0,1000.56,684.16Z"/><path class="cls-2" d="M513.7,756.23c2.47,2.21,3,3.6-.3,6.24-24.83,19.78-49.4,39.88-74.07,59.86-1.58,1.29-2.75,3.06-5.23.61-19.11-19-38.38-37.76-57.59-56.62a6.41,6.41,0,0,1-.8-1.24q35.18-.11,70.35-.22c1.23,0,2.9.74,3.65-.57.88-1.52-.52-2.86-1.31-4-4.28-6.23-10.48-6.07-17-5-5.34.88-7.42-.71-8.47-6.18,8.26-.54,8.28-.55,5.93-8.51q-13.71-46.53-27.45-93c-4.33-14.6-8.8-29.16-13.2-43.75a.59.59,0,0,0,.27-.6l22.95-.14c7.51,0,10.2-2.07,11.76-9.3q6.54-30.15,12.94-60.34c1.73-8.11-2-12.8-10.37-12.84-12.47-.06-24.95,0-37.43,0-12.79-.06-25.58-.22-38.37-.33a97.88,97.88,0,0,0,.88-9.93c-.59-44.47,1.45-89-1.06-133.4A144.27,144.27,0,0,0,335,319.86,26.5,26.5,0,0,1,350.11,316c6,.3,12,.08,18,.06a46,46,0,0,0-.11-92c-13.32,0-26.64-.05-40,0-11.68,0-21.7,4.29-30.19,12.27-8.85,8.32-12.44,19-13.93,30.68A102.94,102.94,0,0,0,255,259.89c-31.8-2.9-61,2.75-84.66,26.1-.89.88-1.7,2.23-3.08.6,0-7.83-.29-15.67,0-23.49.13-3.66-1.1-4.43-4.47-4.24a135.67,135.67,0,0,1-15.49,0c-3.46-.21-4.43.75-4.4,4.3.19,19.5.07,39,.14,58.49,0,1.51-.86,3.38,1.05,4.51-7.45,19.75-11.81,40.19-12,61.27-.36,39.76-.19,79.53-.18,119.3a172.62,172.62,0,0,0,4.2,37.55c-1,1.71-1.92,3.44-3,5.11-6.66,10.73-3.38,22.21,8,27.86,2.5,1.24,5,2.52,7.49,3.78,8.31,17.67,19.74,32.72,36.44,43.33a19.38,19.38,0,0,1,1.87,2.3c8.79,14.76,21.56,21,38.84,19.86,27.47-1.73,54.45-6.25,81.18-12.47,4.21-1,5.61.26,7,4,10.5,28.16,21.33,56.2,31.83,84.36,2.6,7,6.16,13.61,7.32,21.07-2.88-2.78-6.2-5.22-8.53-8.4-6.11-8.36-12.92-8.72-22.63-5.64-42.63,13.55-86.21,14.89-130.22,7.86-13.16-2.1-25.88-5.91-38.72-9.3-13.67-5.64-27.33-11.24-40.09-18.84q-55.47-33-85.55-90.1C12.73,591.54,4.8,562,1.77,531.05A398.91,398.91,0,0,1,.06,491.19c.07-31.83-.23-63.65.09-95.47C.5,361.34,6,327.89,19.74,296.08A226.76,226.76,0,0,1,97,200c32.08-23,68.12-35.77,107.21-40.12,48-5.34,95-1.94,140,17.14,37.86,16.06,68.38,41.34,92.78,74.31s38.12,70.14,43.09,110.73a269.62,269.62,0,0,1,2,32.85c0,40.32.93,80.67-.5,120.94-1.95,54.8-19.78,104.21-55.44,146.56-4.37,5.19-4.43,5.22.38,9.86q29.44,28.44,58.95,56.83C494.75,738.37,503.89,747.65,513.7,756.23Z"/><path class="cls-3" d="M1580,631.7c12.81.08,25.62.35,38.42.15,4.28-.07,5.67.91,5.63,5.46-.22,28.29-.11,56.59-.1,84.88,0,2,.15,4,.23,6l-.09,3.87c-.1.33-.21.66-.31,1-1,.06-2,.18-3,.18q-206.27,0-412.51.11c-4.12,0-5.17-1.59-5.15-5,1-16.79.3-33.61.34-50.41a12.28,12.28,0,0,1,1.76-7c20.2-32.32,40.27-64.73,60.54-97,5.91-9.41,11.21-19.23,18.07-28,2,7,4.78,9.34,10,8.69,5-.61,7.17-4.07,7.22-11,.06-9.09.17-18.17.27-27.25,1.46-.72,1.77-2.3,2.61-3.49,4.83-6.86,8.26-14.64,13.79-21,0,5.48.09,11,.15,16.44a8.2,8.2,0,0,0,5.86,8.31c5.81,2,11.06-2.39,11.12-9.46.12-15,.14-29.9.2-44.84,14.86-22.61,28.94-45.7,43-68.77,1.45,1.36,3,2.67,4.34,4.1q13,13.38,26,26.81c9.66,12,15.64,25.35,16.43,40.9.14,2.79,2.29,4.49,5,4.7s5.25-.92,6.06-4a26.1,26.1,0,0,0,.72-4.39c.59-6.62-.66-13.12-1.91-20.08,2.66,1.68,4.78,4.39,7.39,1.51s.1-5.18-1.72-7.25c-3.52-4-7-8-10.78-11.77-3.37-3.38-5.93-7.63-10.35-9.91-1.2-1.79-2.34-3.62-3.61-5.35q-12.62-17.25-25.28-34.47,24.11-38.75,48.2-77.49c5.93-9.54,11.85-19.09,18.22-29.35h-114l-5.1-53.11,23.16-48.32L1498,166a31.82,31.82,0,0,1,.25,5.41c-.43,3.75.64,5.5,4.76,5a65.81,65.81,0,0,1,8.43-.07c10.75,0,10.75,0,11.41-10.27,30.62,0,61.24.09,91.86-.12,4.8,0,6.21,1.31,6.1,6.14-.32,14.64-.2,29.29-.07,43.94a22.37,22.37,0,0,1-3.7,12.59q-30.79,49-61.25,98.2a17.4,17.4,0,0,0-1,2.24,19.45,19.45,0,0,0-1.53,1.89Q1524.07,378,1494.9,425c-.79,1.07-1.65,2.09-2.35,3.21Q1459.3,481.61,1426.07,535q-20.16,32.41-40.16,64.92c-14.89,2.84-26.6-6.52-39.89-10.64a19.44,19.44,0,0,0-.13,3.73c1,6.12-1.08,9.33-7.23,12.1-20.37,9.18-29.8,30-24.78,52.21,4.68,20.7,22.75,34.75,44.72,34.76,12.81,0,25.63.28,38.44-.06,19.43-.53,33.42-9.92,41.79-27.36,5-10.51,4.76-21.55,2.07-32.65l1.83-.26h105Zm-69.27-418.87v.28c3.15,0,6.3,0,9.45,0,1.48,0,2.56-.19,2.51-2.1-.17-5.94-.24-11.89-.35-17.83-4.88-1.29-9.85-.25-14.77-.58-.5,0-1,0-1.5,0-7.73,0-7.83,0-7.69,7.92.07,4.1-1.83,9.55.82,11.91C1501.41,214.39,1506.77,212.83,1510.73,212.83Z"/><path class="cls-4" d="M657,206.27q-26.52-12.71-53-25.42c-1.77-.86-3.79-1.34-5.1-3q2.07-7.38,4.13-14.75c4.44-.29,8.09,2.67,12.38,3,13.62,5.15,27.56,9.37,41.46,13.71l68.9,22.37q.09,39.93.18,79.87c0,8.68,5.35,14.57,13,14.5s13-6,13-14.57c-.06-14.64-.23-29.29-.11-43.93.06-7.14-1-14.27,0-21.41,2.36,2,4.75,4,7.07,6.12,1.24,1.11,2.21,1.7,3.68.16,4.77-5,10.43-9,14.8-14.37,17.68-5.65,35.38-11.25,53-17,10.25-3.3,20.45-6.77,30.67-10.17,15.65-4.79,31.29-9.64,46.67-15.29,4.23-.48,7.9-3.15,12.25-3.12q2.12,7.18,4.21,14.38L876.3,200.89c-5.21,2.56-10.41,5.16-15.61,7.74q-22.94,10.91-45.89,21.79c-2.11,1-2.75,2.4-2.8,4.67q-.9,38.86-2,77.72c-.35,13.12-.73,26.23-1,39.35,0,2.41-.25,4.34-3.35,4.09l-88.77,0c-3,.18-2.86-2-2.92-4-.57-20.58-1.21-41.17-1.75-61.76q-.74-27.92-1.27-55.82c0-2.09-.64-3.36-2.57-4.26Q682.67,218.38,657,206.27Z"/><path class="cls-5" d="M1408.47,424.28q-13-13.41-26-26.81c-1.39-1.43-2.89-2.74-4.34-4.1-9.52-10-18.75-20.23-28.66-29.79a69.51,69.51,0,0,0-36.74-18.7c-5-1.46-8.57-5.27-12.57-8.3-2.13-1.62-3.44-1.51-5.53,0-4.09,2.94-7.68,6.66-12.59,8.36a68.26,68.26,0,0,0-29,12.44c-13.51,9.87-23.58,23.29-35.35,35-10.72,10.61-20.35,22.29-31.6,32.39l-10.65-10.79c10.51-14.37,21-28.77,31.56-43.09q18.25-24.71,36.68-49.29c2.23-3,3.89-6,4-9.92.56-14.8,1.33-29.59,2-44.39q1.57-26.52,3.14-53.06a133.78,133.78,0,0,1,84.93,0l5.1,53.11c.61,15.76,2.47,31.41,3.94,47.1a6.62,6.62,0,0,0,1.37,3.09q21.12,28.35,42.29,56.65,12.64,17.24,25.28,34.47c1.27,1.73,2.41,3.56,3.61,5.35Z"/><path class="cls-6" d="M1494.9,425q29.17-47.07,58.38-94.15a19.45,19.45,0,0,1,1.53-1.89l30.6,11.29c5.07,8.16,10.27,16.25,15.14,24.53,1.7,2.87,2.81,2.2,4.78.47,2.21-1.93,4.07-4.38,7-5.31,3.81,4.12,7.56,8.3,11.45,12.35a21.36,21.36,0,0,1,6.32,14.11c.3,5.43,1.16,10.83,1.77,16.25q1,13.38,2.09,26.76l.93.41,24.83-46.39c6.18,2.93,12.67,5.21,18.53,8.81l-31.8,66c-4.25,8.81-11.88,13.1-21,11.79-8.33-1.2-14.26-7.29-15.94-16.78-1.83-10.3-3.4-20.64-5.27-32.08-5.42,4.46-10.87,8.18-14.53,13.58-4.93,7.28-9.16,15-13.73,22.56-1.07,1.77-1.67,3.32-.67,5.53,6.26,13.75,12.34,27.58,18.47,41.38-4.94,4.27-11.5,6.14-16.18,10.82-3.56-2.13-5-6.21-8-8.79q-12-15.25-23.94-30.52a6.27,6.27,0,0,0-4.14-2.45l-11.76-1.94L1486,463.17c.07-.82.15-1.64.23-2.47C1487.52,448.42,1491.37,436.77,1494.9,425Z"/><path class="cls-7" d="M1203.14,728.26c0,3.46,1,5,5.15,5q206.25-.19,412.51-.11c1,0,2-.12,3-.18.68-.15.88-.45.31-1l.09-3.87c21.32,0,42.64-.13,64-.07,7.31,0,13.6,6.64,13.64,13.9a14.31,14.31,0,0,1-13.39,14.06c-.67,0-1.33,0-2,0h-606.2c-1.16,0-2.33,0-3.49,0a15.39,15.39,0,0,0-9.89-10.11,275.66,275.66,0,0,1,29.9-12.84c21.13.05,42.27,0,63.4.24,4.58.06,3.35-2.91,3.81-5.22Z"/><path class="cls-8" d="M1032,552.86c16.8,2.31,24.45,14,28.92,28.63,6.12,20,11.92,40.09,18,60.1,1.65,5.44,1.34,10.72-1.33,15.48-5.15,9.17-13.34,15.83-20.59,23.43q1.35-12.07,2.71-24.15c1.06-9.33-.82-12.25-9.87-14.38-2.19-.52-1.88-1.92-2.11-3.31q-1.93-11.82-3.86-23.63c-.16-.95,0-2-1.58-3-1.16,8.47-2.54,16.63-3.29,24.85-.37,4-1.67,5.18-5.74,5.15-28-.19-56-.14-84,0-3.38,0-5.27-.28-5.82-4.51A227.48,227.48,0,0,0,938,610.59c-1,8.91-2.11,17.82-3.12,26.73-.28,2.51-.27,4.46-4,4.86-5.53.6-8.36,5.73-7.67,12a231.15,231.15,0,0,1,1.79,26c-5.85-6.69-11.92-13.19-17.47-20.12a18.5,18.5,0,0,1-3.45-16.14c5-20.81,10.36-41.55,15.75-62.28a67.33,67.33,0,0,1,4-10.17q8.5-19.11,29.48-18.94c6.49,0,13-.22,19.46-.35,4.74,3.64,9.54,7.21,14.19,10.95,1.73,1.39,3,1.45,4.73.05,4.65-3.77,9.44-7.37,14.17-11Z"/><path class="cls-5" d="M612.88,0c9.3.68,18.66-.89,27.91,1C660.77,5,676,21.54,677.87,41.07c2.1,22.12-8.43,40.12-28.45,48.19-2.83,1.14-3.88,2.58-3.53,5.47.19,1.64-.07,3.34.05,5,.21,2.78-.26,4.23-3.46,2.55-16.63-8.75-34.32-10.76-53-10.5-21.54.3-40.73-19.47-42.45-41.11-1.89-23.73,13.47-44.83,36-49.52C592.9-.92,602.92.71,612.88,0Z"/><path class="cls-9" d="M1096.71,733.06a275.66,275.66,0,0,0-29.9,12.84,29.4,29.4,0,0,0-5,.06c-9.85,1.74-18.41-.58-25.46-7.84a2,2,0,0,0-3-.24c-5.61,3.81-11.26,7.56-17.09,11.46l5.73,6.59-60.74-.15c-10.84-3.74-21.28-8.88-33-9.58-7.81-3.59-16.28-5.21-24.32-8.13-8.45-3.06-17.78-4-25-10.06l-5-7c-3.54-13.67-.74-23.07,8.77-29,6-3.73,12.4-4.2,19.18-2.52,6.59,1.64,13,4,19.86,4.55a10.28,10.28,0,0,0,5.84,1.93c.78,6.93,1.6,13.85,2.33,20.78.61,5.72,4,9.34,9.67,9.36q51.93.12,103.85,0c5.42,0,8.88-3.39,9.58-8.89.74-5.76,1.49-11.53,1.89-17.32.18-2.55,1-3.95,3.47-4.56,8.23-2,16.37-4.36,24.64-6.16,11.69-2.56,22.67,3.13,26.46,13.33,4.22,11.34-.06,23-10.69,29.14C1098,732.06,1097.38,732.59,1096.71,733.06Z"/><path class="cls-7" d="M153,728c12.84,3.39,25.56,7.2,38.72,9.3,44,7,87.59,5.69,130.22-7.86,9.71-3.08,16.52-2.72,22.63,5.64,2.33,3.18,5.65,5.62,8.53,8.4,2.17,1.37,1.28,5.37,4.78,5.62l-3.42,7q-44,0-88-.09-118.74,0-237.46.05c-6.21,0-10.54-2.52-13.36-7.8s-1.92-10.38,1.76-14.87a15,15,0,0,1,11.94-5.28c39.49-.08,79,0,118.48-.13C149.54,728,151.29,729.74,153,728Z"/><path class="cls-8" d="M751.76,216.65c-1,7.14.1,14.27,0,21.41-.12,14.64.05,29.29.11,43.93,0,8.61-5.22,14.5-13,14.57s-13-5.82-13-14.5q-.12-39.93-.18-79.87.07-32.22.15-64.44c.05-20.9,16.68-39.29,37.73-41.76,22.84-2.67,41.53,9.84,46.68,31.24.42,1.73,1.42,3.52-.55,5q-24.09,6.25-48.17,12.49a21.21,21.21,0,0,1-8.26.86,9.13,9.13,0,0,0-10,5.82c-1.78,4.34-1.68,9.75,2.45,11.67,6.16,2.87,5.34,7.38,5.38,12.21.07,8.65.21,17.3.34,26C751.53,206.36,751.65,211.5,751.76,216.65Z"/><path class="cls-10" d="M1529.79,471.34l11.76,1.94a6.27,6.27,0,0,1,4.14,2.45q11.93,15.3,23.94,30.52c3.2,17.65,6.33,35.32,9.63,53,1.31,7,2.35,14.08,4.42,20.95,1.82,6,.85,12.21.14,18.33q-1.92,16.6-3.82,33.21l-32.32,0c.4-12,1.57-23.88,2.83-35.78.29-2.75.86-5.42-.92-8.15-13.06-20.06-26-40.2-38.91-60.32a29.74,29.74,0,0,1,.9-4.84Q1520.63,497,1529.79,471.34Z"/><path class="cls-7" d="M878.91,728c7.25,6.09,16.58,7,25,10.06,8,2.92,16.51,4.54,24.32,8.13l-7.36-.32c-7.43-.3-11.91,2.91-14.23,10.19l-292.3,0c-9.9,0-15.43-4.84-15.47-13.5,0-9.21,5.68-14.48,15.73-14.49,13.33,0,26.65,0,40,0,1.76,0,3.69.64,5.26-.8,15.12,3.83,30.14,8.06,45.63,10.33,26.6,3.9,53.28,4.46,80.08,3,25-1.39,49.31-6.68,73.35-13.36C865.51,729.18,872.25,727.54,878.91,728Z"/><path class="cls-9" d="M1337.76,214.2a133.78,133.78,0,0,0-84.93,0l-23.09-48.29c-2-6.1-2.43-12.05,2.09-17.3,6.47-7.51,14.47-8.48,23.12-2.75,7.61,5,15.08,10.29,22.63,15.42,2.47,1.68,5,3.26,7.51,4.89,13.08,9.18,7.58,8.51,20.08.42.13-.08.18-.27.26-.41,9.31-6.32,18.73-12.46,27.88-19,10.72-7.64,23-5.54,27.58,5.09,1.92,4.49,1.24,9.07,0,13.61Z"/><path class="cls-2" d="M1229.74,165.9l23.09,48.29q-1.57,26.53-3.14,53.06c-14.3,0-28.6-.15-42.9.05-3.79.05-4.77-1.11-4.75-4.8q.21-45.9,0-91.8c0-3.7,1-4.92,4.76-4.79C1214.44,166.17,1222.1,165.93,1229.74,165.9Z"/><path class="cls-8" d="M938.89,486.14c-8.28.37-16.56.76-24.85,1.08-1.66.07-3.73.84-3.71-2.33,0-2.88,1.71-2.6,3.59-2.69,6.13-.28,12.26-.76,18.39-1,2.47-.08,3.44-.84,3.49-3.49.1-5.62,0-11.26,1.8-16.75,5-15.29,21.88-27.7,39.51-28.94a64.15,64.15,0,0,1,15.84.9c18.14,5.88,30,17.69,34.4,36.49.67,2.87.43,5.94.7,8.9.18,2-.89,2.65-2.56,2.89l-78,4.33Z"/><path class="cls-9" d="M751.76,216.65c-.11-5.15-.23-10.29-.31-15.44-.13-8.65-.27-17.3-.34-26,0-4.83.78-9.34-5.38-12.21-4.13-1.92-4.23-7.33-2.45-11.67a9.13,9.13,0,0,1,10-5.82,21.21,21.21,0,0,0,8.26-.86q24.09-6.19,48.17-12.49c1.62,12.22,1.07,24.5,1.15,36.77.09,13.59-7.15,21-20.67,21.19-.83,0-1.66.11-2.48.16l-4.79-.05c-4.72-1.17-6.64.51-6.11,5.48.44,4.23.32,8.53.46,12.8-4.37,5.38-10,9.42-14.8,14.37-1.47,1.54-2.44.95-3.68-.16C756.51,220.69,754.12,218.69,751.76,216.65Zm34.31-47.55a9.69,9.69,0,0,0-2.47,0c-2.13.6-5.71-1.68-6.2,1.62-.46,3,2.19,5.34,5.12,6.61,3.61,1.57,6.8.68,9.55-1.93,1.45-1.38,2.95-3.22,2.29-5.18-.75-2.22-3.16-.85-4.83-1.12A22.16,22.16,0,0,0,786.07,169.1Z"/><path class="cls-9" d="M938.89,486.14l8.61-.59c5.47,4.06,10.9,8.17,16.4,12.17,9.18,6.69,18.58,4.94,24.66-4.71,2.56-4.07,5.84-6.35,10.69-5.43,4.31.82,7.19,3.42,7.85,7.9.76,5-1.11,8.84-5.9,10.83-2,.82-2.25,1.71-1.41,3.67,2.54,5.93,4.85,12,7.25,18-2.17,8-.91,16.14-1.15,24.22-4.73,3.66-9.52,7.26-14.17,11-1.74,1.4-3,1.34-4.73-.05-4.65-3.74-9.45-7.31-14.19-10.95,0-5.82-.14-11.65,0-17.47.08-2.85-.92-3.86-3.74-3.68-3,.19-6,0-9,0-13.74,0-21.78-7.75-21.9-21.52C938.14,501.75,938.65,494,938.89,486.14ZM963.35,519a9.1,9.1,0,0,0,6.28-2.59c1.48-1.35,2.79-3.19,2-5.25s-2.89-.92-4.4-1a40.21,40.21,0,0,0-6.94,0c-1.79.18-4.45-1.24-5.18,1.26s1.4,4.23,3.2,5.73A7.55,7.55,0,0,0,963.35,519Z"/><path class="cls-9" d="M1612.37,360c-3,.93-4.83,3.38-7,5.31-2,1.73-3.08,2.4-4.78-.47-4.87-8.28-10.07-16.37-15.14-24.53a23.83,23.83,0,0,1,4.21-1.51c6.29-1.07,10.58-4.09,11.23-10.92,3.32-2.74,6.59-5.53,10-8.18,2-1.54,2.87-3,2.1-5.76a7.82,7.82,0,0,1,3.62-9.05,8.46,8.46,0,0,1,10.23.25c6.29,4.51,13.43,7,20.8,9.1,9.91,2.79,20,2.6,30.1,2.08-4.11,14-12,26-20,38-1.46,2.17-4.32,2.33-6.13,4a22.55,22.55,0,0,1-16.25-2.27c-12.16-6.32-12.23-6.18-22.28,3.17A5.83,5.83,0,0,0,1612.37,360Zm29.7-14.11c2.34-.45,5.17-1,5.84-3.24s-2.34-2.64-3.86-3.68a37.25,37.25,0,0,0-4.73-2.77c-1.38-.68-2.73-2.73-4.33-1.37s-1.36,3.69-.61,5.62C1635.72,343.89,1638.42,345.57,1642.07,345.87Z"/><path class="cls-4" d="M1677.67,316.3c-10.12.52-20.19.71-30.1-2.08-7.37-2.08-14.51-4.59-20.8-9.1a8.46,8.46,0,0,0-10.23-.25,7.82,7.82,0,0,0-3.62,9.05c.77,2.78-.14,4.22-2.1,5.76-3.38,2.65-6.65,5.44-10,8.18a109.53,109.53,0,0,1,3.44-31.62c4.54-18.63,23.53-31.28,42.35-28.87,19.93,2.55,35.21,19.57,34.74,39.21C1681.3,309.94,1682.78,314.58,1677.67,316.3Z"/><path class="cls-8" d="M1522.88,166c-.66,10.27-.66,10.27-11.41,10.27a65.81,65.81,0,0,0-8.43.07c-4.12.53-5.19-1.22-4.76-5A31.82,31.82,0,0,0,1498,166c.09-17.13.38-34.26.14-51.39-.06-4.57,1.35-5.75,5.59-5.45a105,105,0,0,0,14,.07c3.84-.24,5.11.82,5,4.9-.25,15.64-.1,31.29-.08,46.94C1522.69,162.69,1522.81,164.35,1522.88,166Z"/><path class="cls-7" d="M513.7,756.23c-9.81-8.58-19-17.86-28.13-27.09a12.18,12.18,0,0,1,5.31-1c16.79,0,33.57-.07,50.36.06,9.83.07,16,6.28,15.7,15.32A12.84,12.84,0,0,1,544.1,756C534,756.17,523.83,756.17,513.7,756.23Z"/><path class="cls-4" d="M1007,527.94c-2.4-6-4.71-12-7.25-18-.84-2-.58-2.85,1.41-3.67,4.79-2,6.66-5.8,5.9-10.83-.66-4.48-3.54-7.08-7.85-7.9-4.85-.92-8.13,1.36-10.69,5.43-6.08,9.65-15.48,11.4-24.66,4.71-5.5-4-10.93-8.11-16.4-12.17l78-4.33a47.47,47.47,0,0,1-7.57,28.94C1014.16,516,1011.64,522.61,1007,527.94Z"/><path class="cls-8" d="M354.44,756.15l3.42-7H377.3c1.36,5.82,3,6.91,9,6.15,2.94-.37,6.19-1.59,8.83-.12,4.76,2.64,6.18-.06,7.43-3.74.27-.78.64-1.53,1-2.29h19.41c1.05,5.47,3.13,7.06,8.47,6.18,6.51-1.08,12.71-1.24,17,5,.79,1.15,2.19,2.49,1.31,4-.75,1.31-2.42.56-3.65.57q-35.18.15-70.35.22H351.05C351.3,761.45,353.67,759.08,354.44,756.15Z"/><path class="cls-4" d="M1612.37,360a5.83,5.83,0,0,1,.61-.78c10-9.35,10.12-9.49,22.28-3.17a22.55,22.55,0,0,0,16.25,2.27c0,8.29.14,16.58,0,24.87-.22,12.33-7.58,19.57-19.59,19.52-.61-5.42-1.47-10.82-1.77-16.25a21.36,21.36,0,0,0-6.32-14.11C1619.93,368.28,1616.18,364.1,1612.37,360Z"/><path class="cls-9" d="M1577.67,515c4.68-4.68,11.24-6.55,16.18-10.82a20,20,0,0,1,14.67,10c2.55,4.26,4.93,8.63,7.37,13,1.59,2.82.42,4.44-1.72,6.75-3.11,3.36-5.12,6.13-10.85,6.23-3.9.07-5.91.16-7.81-3-1.1-1.86-1.65-5.24-5-1.77-1.42,1.48-3.68.72-4.72-1.05C1582.22,528.26,1577.11,522.83,1577.67,515Z"/><path class="cls-9" d="M1678.29,392.28c-5.86-3.6-12.35-5.88-18.53-8.81-1-13.31,6.27-22.94,14.45-32.12a41,41,0,0,0,5-6.76c1.33-2.3,3.51-3.34,5.92-2s1.94,3.61,1,5.7a74,74,0,0,1-4.05,8c-2,3.09-1.12,5.23,1.57,7.15a17.25,17.25,0,0,1,2.71,2.16c7.49,8,6.81,15-2.14,22.21C1682.29,389.34,1680.26,390.78,1678.29,392.28Z"/><path class="cls-9" d="M603,163.11q-2.07,7.37-4.13,14.75c-12-3.07-24.11-5.56-34.9-12-.1-4.39,3.08-4.8,7-4.93a70,70,0,0,1-11.5-16.73c-1.8-3.64-2.63-7.25,1.25-9.64,3.67-2.27,6.73-.75,9.12,2.92C577.89,149.85,589.53,157.69,603,163.11Z"/><path class="cls-9" d="M924.15,177.4q-2.1-7.18-4.21-14.38c14.17-5.14,25.65-13.71,34-26.38,2.07-3.14,5.39-3.43,8.44-2s3,4.56,2,7.41c-2.58,7.36-7.71,13.09-12.47,19a1.25,1.25,0,0,0-.35.16c-.06,0,0,.17-.07.26l.38-.47c3.32.19,7.53-.92,7,4.83-.87,1-1.59,2.12-3,2.56-10,3.15-19.93,6.34-29.92,9.44C925.5,178.08,924.78,177.59,924.15,177.4Z"/><path class="cls-9" d="M1175.39,413.94,1186,424.73a66.36,66.36,0,0,0-16.14,39.63c-.28,3.82-2.61,5.48-6.18,5.79-4.38-.92-5.47-4.1-5.77-8-.49-6.3.65-12.46,1.33-18.67.1-.54.4-1.51.29-1.55-.84-.37-.74.51-1,.92-2.11,1-4.42,2.42-6.22-.14-1.6-2.29-.23-4.21,1.31-6.21,3.24-4.21,7.74-7.33,10.27-12.11C1168.2,421.38,1170.64,416.39,1175.39,413.94Z"/><path class="cls-8" d="M1022,755.93l-5.73-6.59c5.83-3.9,11.48-7.65,17.09-11.46a2,2,0,0,1,3,.24c7,7.26,15.61,9.58,25.46,7.84a29.4,29.4,0,0,1,5-.06A15.39,15.39,0,0,1,1076.7,756c-8.27.06-16.54.19-24.8.17C1041.93,756.16,1032,756,1022,755.93Z"/><path class="cls-8" d="M906.67,756.07c2.32-7.28,6.8-10.49,14.23-10.19l7.36.32c11.72.7,22.16,5.84,33,9.58q-26.1.39-52.19.77A11.34,11.34,0,0,1,906.67,756.07Z"/><path class="cls-2" d="M907.69,166.14c-15.38,5.65-31,10.5-46.67,15.29,0-3.82.06-7.66-.17-11.47-.18-3,.78-4.07,3.91-4C879.07,166.12,893.38,166.09,907.69,166.14Z"/><path class="cls-11" d="M656.84,179.82c-13.9-4.34-27.84-8.56-41.46-13.71,12.56,0,25.13,0,37.69-.19,3.08,0,4.12,1,3.91,4C656.75,173.2,656.87,176.52,656.84,179.82Z"/><path class="cls-11" d="M1305.43,166.17c-.08.14-.13.33-.26.41-12.5,8.09-7,8.76-20.08-.42Z"/><path class="cls-7" d="M783,190.28l4.79.05c0,.33.07.65.08,1,.08,1.8.35,3.73-1.85,4.55a2.77,2.77,0,0,1-3.17-.65C781.3,193.54,782,191.9,783,190.28Z"/><path class="cls-7" d="M960.82,20c0,1.77-.81,2.9-2.58,3-1.94.15-3.18-.73-3.27-2.79a2.6,2.6,0,0,1,2.56-3A2.74,2.74,0,0,1,960.82,20Z"/><path class="cls-7" d="M957.82,772a2.72,2.72,0,0,1-2.83-3.21,2.57,2.57,0,0,1,2.93-2.63c2,0,3,1.21,2.87,3.17C960.69,771.09,959.59,771.92,957.82,772Z"/><path class="cls-7" d="M123.07,852.12a2.73,2.73,0,0,1,2.79,3.25,2.61,2.61,0,0,1-3,2.59c-2-.06-3-1.27-2.82-3.22C120.18,853,121.29,852.16,123.07,852.12Z"/><path class="cls-7" d="M701.84,855.22a2.73,2.73,0,0,1-3.32,2.72,2.59,2.59,0,0,1-2.52-3c.1-2,1.37-2.93,3.29-2.76C701,852.31,701.83,853.47,701.84,855.22Z"/><path class="cls-7" d="M1274.63,852.12c2,0,3.12.94,3.13,3a2.62,2.62,0,0,1-2.7,2.88c-1.71.1-2.9-.66-3.09-2.44A2.74,2.74,0,0,1,1274.63,852.12Z"/><path class="cls-7" d="M1536.77,19.88c0,1.79-.72,3-2.51,3.13s-3.21-.65-3.33-2.71a2.6,2.6,0,0,1,2.48-3.07C1535.35,17,1536.56,17.92,1536.77,19.88Z"/><path class="cls-7" d="M1824.76,192.87q-.18,3.28-3.16,3.14a2.62,2.62,0,0,1-2.7-2.89c0-2,1.15-3,3.13-2.93A2.65,2.65,0,0,1,1824.76,192.87Z"/><path class="cls-7" d="M379,20.3c0-1.76.77-2.92,2.54-3.07,1.94-.17,3.2.72,3.3,2.76a2.59,2.59,0,0,1-2.52,3C380.39,23.2,379.18,22.31,379,20.3Z"/><path class="cls-4" d="M1101,236a45.3,45.3,0,0,0,6.49,0c4.92-.73,6.08,1.35,5.23,5.86-1,5.25-3,9.81-7,13.44a112.71,112.71,0,0,1-10.19,8c-6.65,4.72-9.84,11.12-8.74,19.38.78,5.87,4.61,9.5,10.61,10.09,5.82.58,10.48-2.37,11.87-8.24.7-3,2-3.52,4.69-3.42,5.16.19,10.34.25,15.49,0,3.54-.18,4.56.84,4.18,4.49-1.28,12.13-7.76,19.87-19.18,23.62a52.21,52.21,0,0,1-26.63,1.26c-12.86-2.52-21.91-9.67-24.79-22.88-3-13.82,2-25.81,14.21-33.52,6.25-3.95,11.47-8,11.51-16.12,0-2,1.43-1.91,2.76-1.92C1094.66,235.94,1097.83,236,1101,236Z"/><path class="cls-9" d="M587.8,526.18h-6.5c-5.74,0-6.1-.52-5.24-6.38,1.43-9.77,8.59-15,15.92-20,6.65-4.57,10.58-10.39,10.07-18.79-.39-6.44-3.95-10.66-10.18-11.66a10.93,10.93,0,0,0-12.46,8.28c-.77,3-2.14,3.52-4.8,3.43a136.27,136.27,0,0,0-15,0c-4.48.34-5-1.75-4.47-5.35,1.94-13.67,11.68-22.81,26.24-24.58a59.1,59.1,0,0,1,19.81.57c12.86,2.78,21.75,10,24.58,23.18,3.08,14.39-2.62,25.56-14.56,33.35-6.05,3.95-11,8-11.25,15.8-.07,2.21-1.63,2.15-3.17,2.15Z"/><path class="cls-8" d="M802.2,633.78q-1.63-8.13-3.26-16.24l14.69-7.42c2.71,5.54,5.32,6.49,9.92,2.83,5-4,10.18-5.24,16.16-2.89,2.46,1.82,2.74,3.06-.48,4.63C826.74,620.76,814.9,628.1,802.2,633.78Z"/><path class="cls-8" d="M723.49,617.77c-1.42,5.36-1.38,11.08-4,16.16l0,.07A188.58,188.58,0,0,0,692,619.94l0,0c-.22-1.19-1.19-1.25-2.1-1.4-3.06-2.44-7.36-3.07-9.62-6.65,6.72-4.42,10.8-4.29,17.62.56,5.52,3.91,7.69,3.48,11-2.19Z"/><path class="cls-9" d="M587.72,556c-11.8,0-11.8,0-11.8-12,0-7.82,0-7.82,8-7.82,4,0,8,.2,12-.06,3.38-.22,4.51,1.12,4.1,4.31a26.91,26.91,0,0,0,0,3.48C599.92,556,599.92,556,587.72,556Z"/><path class="cls-4" d="M1100.69,226c-11.81,0-11.81,0-11.81-11.91,0-7.79,0-7.79,7.92-7.8,4.32,0,8.66.1,13,0,2.43-.08,3.3.87,3.12,3.21-.12,1.48,0,3,0,4.49C1112.88,226,1112.88,226,1100.69,226Z"/><path class="cls-5" d="M1000.56,684.16a9.06,9.06,0,0,1-9,8.77c-5.16,0-8.94-4-8.75-9.36a8.57,8.57,0,0,1,9.08-8.5A9.11,9.11,0,0,1,1000.56,684.16Z"/><path class="cls-12" d="M878.91,728c-6.66-.47-13.4,1.17-20-.85,4.57-3.07,10.07-3.85,15-6.17Z"/><path class="cls-12" d="M692,619.94A188.58,188.58,0,0,1,719.49,634c-10.24-1.85-19.19-6.48-27.37-12.73C691.89,621.09,692.05,620.4,692,619.94Z"/><path class="cls-12" d="M927.52,696a10.28,10.28,0,0,1-5.84-1.93l4.71-4.14C928,692.07,927.63,694,927.52,696Z"/><path class="cls-12" d="M689.9,618.56c.91.15,1.88.21,2.1,1.4C690.67,620.44,689.94,620,689.9,618.56Z"/><path class="cls-13" d="M136.08,544.27q14.34-21.24,28.67-42.49c3.89-5.79,7.57-11.72,11.5-17.49,9.23-13.54,22.26-19.35,38.43-18.64,4.45,2.27,8.9,4.52,13.34,6.79a6.26,6.26,0,0,0,6.2-.06c4.23-2.31,8.5-4.53,12.76-6.79,7.63,0,15.34-.72,22.78,1.51,10,3,16.83,9.6,21.27,18.95,8.33,17.54,16.76,35,25.15,52.55q-3.72,21.15-9,42-16.23-31.9-32.45-63.8l-.88.19L276.34,599c-.14,1.85-.79,2.84-3,3.06-11,1.1-22,2.42-33,3.66,2.22-4.07-3.08-8.83,1.29-13,.84-.79-1.21-2.83-2.75-3.61-5.77-2.93-11.38-6.24-17.36-8.65-10.28-4.13-15.78-1.79-20.65,8-6.55,13.11-6.55,13.11,5.44,21.31l-23.24,2.83c-.05-4.48-.15-9-.12-13.45,0-1.77-.19-3.12-2.12-4-10.79-4.68-21.53-9.47-32.28-14.22-2.5-1.26-5-2.54-7.49-3.78-11.36-5.65-14.64-17.13-8-27.86C134.16,547.71,135.1,546,136.08,544.27Zm46.77-11.41c-4.92,6.62-9.06,12.17-13.19,17.74-2.31,3.12-2.52,6.46.68,8.79A38.36,38.36,0,0,0,182.85,565Z"/><path class="cls-4" d="M335,319.86l-16.23,5.88c-.27-.31-.65-.56-.62-.75,1.21-8.12-1.35-12.41-10-15.61-16.55-6.15-23.15-20.28-24-37.34-.08-1.65-.13-3.31-.2-5,1.49-11.65,5.08-22.36,13.93-30.68,8.49-8,18.51-12.23,30.19-12.27,13.33-.06,26.65,0,40,0a46,46,0,0,1,.11,92c-6,0-12,.24-18-.06A26.5,26.5,0,0,0,335,319.86Z"/><path class="cls-4" d="M183.11,612.64l23.23-2.83c2.54,1.17,5.13,2.26,7.6,3.55,2.32,1.21,5.06.85,5.55-1.23,1.44-6,4.3-2.77,6.86-1.45,2.33,1.2,5.71,2.46,6.53-.17,1.34-4.35,5-3.36,7.5-4.77,11-1.24,22-2.56,33-3.66,2.18-.22,2.83-1.21,3-3.06l2.33-.07c.15,1.69-2.79,4.61,1.8,4.51h0l30.67-.07c2,.12,3.94.33,5.9.35q18.08.18,36.13.27a9.38,9.38,0,0,0,.39,4.39c1.85,7,3.75,14.07,5.27,21.18,3.3,15.51,6.32,31.09,11.14,46.24a1.61,1.61,0,0,0-.72,2.07q7.35,31,14.63,62c2,8.6,2,8.62-6.56,9.2H357.86c-3.5-.25-2.61-4.25-4.78-5.62-1.16-7.46-4.72-14.11-7.32-21.07-10.5-28.16-21.33-56.2-31.83-84.36-1.4-3.77-2.8-5-7-4-26.73,6.22-53.71,10.74-81.18,12.47-17.28,1.09-30.05-5.1-38.84-19.86a19.38,19.38,0,0,0-1.87-2.3C185,620.35,182.62,616.73,183.11,612.64Z"/><path class="cls-6" d="M307.19,580.56q5.31-20.8,9-42c.82-3.19,1.65-6.38,2.46-9.58,1.65-6.46,4.14-8.39,10.9-8.48s13.62-.2,20.43-.3c12.79.11,25.58.27,38.37.33,12.48,0,25,0,37.43,0,8.35,0,12.1,4.73,10.37,12.84q-6.45,30.18-12.94,60.34c-1.56,7.23-4.25,9.27-11.76,9.3l-22.94.14q-35.44-.09-70.91-.19c-2.15,0-4.29-.3-6.44-.46-4.67-1.94-6.35-5.68-6.32-10.46A49.92,49.92,0,0,0,307.19,580.56Zm63.5-10.13a8.68,8.68,0,0,0,.27-17.36,8.75,8.75,0,0,0-8.86,8.81A8.63,8.63,0,0,0,370.69,570.43Z"/><path class="cls-14" d="M370,675.82c-4.82-15.15-7.84-30.73-11.14-46.24-1.52-7.11-3.42-14.14-5.27-21.18a9.38,9.38,0,0,1-.39-4.39l35.07-.2c4.4,14.59,8.87,29.15,13.2,43.75q13.79,46.5,27.45,93c2.35,8,2.33,8-5.93,8.51H403.53c-3.59.4-5.13-1.51-6.34-4.73q-8.91-23.68-18.29-47.2C376,690,374.11,682.44,370,675.82Z"/><path class="cls-6" d="M167.24,286.59c0,11.61-.25,23.22,0,34.82.08,3.87-1.17,4.74-4.78,4.61-6.12-.24-12.26.06-18.39.13-1.91-1.13-1.05-3-1.05-4.51-.07-19.5.05-39-.14-58.49,0-3.55.94-4.51,4.4-4.3a135.67,135.67,0,0,0,15.49,0c3.37-.19,4.6.58,4.47,4.24C167,270.92,167.2,278.76,167.24,286.59Z"/><path class="cls-12" d="M388.22,603.81l-35.07.2q-18.06-.12-36.13-.27c-2,0-3.93-.23-5.9-.35-.07-.08-.23-.19-.21-.25a2.63,2.63,0,0,1,.24-.58c2.15.16,4.29.45,6.44.46q35.46.13,70.91.19A.61.61,0,0,1,388.22,603.81Z"/><path class="cls-4" d="M1440.9,632c2.69,11.1,3,22.14-2.07,32.65-8.37,17.44-22.36,26.83-41.79,27.36-12.81.34-25.63.06-38.44.06-22,0-40-14.06-44.72-34.76-5-22.22,4.41-43,24.78-52.21,6.15-2.77,8.23-6,7.23-12.1a19.44,19.44,0,0,1,.13-3.73c13.29,4.12,25,13.48,39.89,10.64,5.78.18,11.66-.24,17.33.67C1421.89,603.55,1434.07,614.65,1440.9,632Z"/><path class="cls-6" d="M1283.85,545.81c.05-23.3.14-46.59.13-69.88,0-4.39-3.16-7.18-7.73-7.28a8.1,8.1,0,0,0-8.49,8c-.18,6.82.06,13.65-.09,20.47-.13,6.38-4.54,10.08-10.4,9-4.15-.76-6.55-4-6.56-9.23,0-19-.12-37.95.06-56.92a27.67,27.67,0,0,0-3-13.89q-.6-3-1.22-6c.27-1.33,1.71-1.23,2.44-2q20.67-4.25,41.36-8.48c4.13-.85,8-2.09,12.46.06,3.54,1.7,7.55.23,10.14-3.25,2.41-3.23,3.41-7.59.76-10.15-4.74-4.57-2-8,.08-12,1.22-2.36,2.3-4.78,3.44-7.17,5.29,4,8.38,9.72,12,15.05l2.64,5c2.74,7.62,3.21,15.5,3.12,23.54-.16,13.81.06,27.62.12,41.43-.06,14.94-.08,29.89-.2,44.84-.06,7.07-5.31,11.51-11.12,9.46a8.2,8.2,0,0,1-5.86-8.31c-.06-5.48-.1-11-.15-16.44-.92-5.94-3.87-8.91-8.69-8.73s-8,3.72-8,9.46c0,7.93.16,15.86.26,23.79-.1,9.08-.21,18.16-.27,27.25,0,7-2.27,10.43-7.22,11C1288.63,555.15,1285.89,552.76,1283.85,545.81Z"/><path class="cls-5" d="M1529.79,471.34q-9.12,25.64-18.21,51.29a29.74,29.74,0,0,0-.9,4.84c-5.5,14.57-9.66,29.58-14.37,44.4-6.32,19.91-12.42,39.9-18.62,59.86h-35a221.21,221.21,0,0,1,13.32-46.34c1.87-4.56,4.5-8.93,4.64-14.1q.63-23.19,1.29-46.38c.37-13.16,3.08-25.71,9.73-37.21,4.73-8.2,9.54-16.35,14.32-24.53Z"/><path class="cls-9" d="M1408.47,424.28,1419.35,414c4.42,2.28,7,6.53,10.35,9.91,3.75,3.76,7.26,7.78,10.78,11.77,1.82,2.07,4.47,4.23,1.72,7.25s-4.73.17-7.39-1.51c1.25,7,2.5,13.46,1.91,20.08a26.1,26.1,0,0,1-.72,4.39c-.81,3.1-3.16,4.25-6.06,4s-4.9-1.91-5-4.7C1424.11,449.63,1418.13,436.23,1408.47,424.28Z"/><path class="cls-8" d="M1510.73,212.83c-4,0-9.32,1.56-11.53-.4-2.65-2.36-.75-7.81-.82-11.91-.14-7.92,0-7.92,7.69-7.92.5,0,1,0,1.5,0,4.92.33,9.89-.71,14.77.58.11,5.94.18,11.89.35,17.83,0,1.91-1,2.11-2.51,2.1-3.15,0-6.3,0-9.45,0Z"/><path class="cls-12" d="M1301.31,516.21c-.1-7.93-.28-15.86-.26-23.79,0-5.74,3.13-9.28,8-9.46s7.77,2.79,8.69,8.73c-5.53,6.39-9,14.17-13.79,21C1303.08,513.91,1302.77,515.49,1301.31,516.21Z"/><path class="cls-15" d="M1624.09,732c.57.54.37.84-.31,1C1623.88,732.69,1624,732.36,1624.09,732Z"/><path class="cls-13" d="M723.49,617.77l-14.62-7.49q-1.05-33.16-2.1-66.32c-.76-25.27-1.79-50.54-2-75.81-.1-9.41,1.51-18.85,2.53-28.26q4.25-39.17,8.66-78.3c.2-1.8.65-3.58,1-5.36l88.77,0q2.48,20.16,4.94,40.33a.29.29,0,0,0,.09.45c.54,14.64,2.41,29.18,4.5,43.62,3,20.59,2.26,41.12,1.66,61.73q-1.2,41.65-2.34,83.31c-.23,8.15-.59,16.29-.89,24.43l-14.69,7.42c-6.54-12.56-9.43-26.23-11.81-40-5.54-32.14-6.58-64.53-4.42-97,.44-6.52-1-12.48-2.75-18.57-6.14-21.75-12.17-43.52-18.26-65.34-1.68.23-1.52,1.55-1.8,2.53-6.55,23.36-13.18,46.7-19.56,70.1-1.92,7-.36,14.26-.1,21.36,1.34,36.08-.56,71.85-9.5,107A94.37,94.37,0,0,1,723.49,617.77Z"/><path class="cls-9" d="M1312.68,344.88c.08,2.93.49,5.89.18,8.78-.91,8.29,1.38,15.93,4.33,23.47-1.14,2.39-2.22,4.81-3.44,7.17-2,4-4.82,7.41-.08,12,2.65,2.56,1.65,6.92-.76,10.15-2.59,3.48-6.6,4.95-10.14,3.25-4.47-2.15-8.33-.91-12.46-.06q-20.68,4.22-41.36,8.48c-2-11.57-1.32-23.24-.91-34.84.31-8.76,9.46-15.59,19.88-16a84.06,84.06,0,0,1,9,0c3.07.2,4-1,4.08-4,.27-6.1-1.19-12.31,1-18.3,4.91-1.7,8.5-5.42,12.59-8.36,2.09-1.51,3.4-1.62,5.53,0C1304.11,339.61,1307.64,343.42,1312.68,344.88ZM1271.78,388a10.25,10.25,0,0,0,2.48,0c2-.52,5.4,1.57,6-1.48.51-2.85-2-5.06-4.7-6.39a7.86,7.86,0,0,0-8.85,1.08c-1.73,1.36-3.29,3.29-2.64,5.53s3.13,1,4.78,1.26A17.39,17.39,0,0,0,1271.78,388Z"/><path class="cls-11" d="M786.07,169.1a22.16,22.16,0,0,1,3.46,0c1.67.27,4.08-1.1,4.83,1.12.66,2-.84,3.8-2.29,5.18-2.75,2.61-5.94,3.5-9.55,1.93-2.93-1.27-5.58-3.61-5.12-6.61.49-3.3,4.07-1,6.2-1.62A9.69,9.69,0,0,1,786.07,169.1Z"/><path class="cls-11" d="M963.35,519a7.55,7.55,0,0,1-5-1.87c-1.8-1.5-3.93-3.26-3.2-5.73s3.39-1.08,5.18-1.26a40.21,40.21,0,0,1,6.94,0c1.51.11,3.64-1,4.4,1s-.55,3.9-2,5.25A9.1,9.1,0,0,1,963.35,519Z"/><path class="cls-11" d="M1642.07,345.87c-3.65-.3-6.35-2-7.69-5.44-.75-1.93-1-4.21.61-5.62s3,.69,4.33,1.37a37.25,37.25,0,0,1,4.73,2.77c1.52,1,4.51,1.45,3.86,3.68S1644.41,345.42,1642.07,345.87Z"/><path class="cls-11" d="M370,675.82c4.16,6.62,6.08,14.2,8.95,21.36q9.42,23.49,18.29,47.2c1.21,3.22,2.75,5.13,6.34,4.73-.33.76-.7,1.51-1,2.29-1.25,3.68-2.67,6.38-7.43,3.74-2.64-1.47-5.89-.25-8.83.12-6,.76-7.64-.33-9-6.15,8.52-.58,8.58-.6,6.56-9.2q-7.26-31-14.63-62A1.61,1.61,0,0,1,370,675.82Z"/><path class="cls-15" d="M951.87,161.08l-.38.47c0-.09,0-.22.07-.26a1.25,1.25,0,0,1,.35-.16Z"/><path class="cls-1" d="M1158.56,442.81c.27-.41.17-1.29,1-.92.11,0-.19,1-.29,1.55Z"/><path class="cls-7" d="M1188.16,651c2.19.16,3.57.79,3.45,2.65a3.21,3.21,0,0,1-3.19,3.17,2.86,2.86,0,0,1-3.11-3.08C1185.42,651.94,1186.67,650.83,1188.16,651Z"/><path class="cls-7" d="M1245.79,593.13c1.92.06,3,1,3,3A2.6,2.6,0,0,1,1246,599a2.66,2.66,0,0,1-3-3C1243,594.2,1244,593.28,1245.79,593.13Z"/><path class="cls-7" d="M1217.23,455c-2.14-.06-3.27-1-3.24-3a2.59,2.59,0,0,1,2.75-2.82,2.94,2.94,0,0,1,.49,5.85Z"/><path class="cls-7" d="M1191.55,481.17c-.68,1.65-1.68,3.05-3.65,2.66-1.54-.3-2.86-1.39-2.62-3.12s1.52-2.84,3.56-2.62S1191.22,479.61,1191.55,481.17Z"/><path class="cls-7" d="M1246,478.13a2.92,2.92,0,1,1-.3,5.84,2.59,2.59,0,0,1-2.73-2.85C1243,479.11,1244.08,478.16,1246,478.13Z"/><path class="cls-7" d="M1219.85,509.5a2.71,2.71,0,0,1-3,3.15,2.86,2.86,0,0,1-2.79-3,2.91,2.91,0,0,1,3.09-3.16A2.64,2.64,0,0,1,1219.85,509.5Z"/><path class="cls-7" d="M1214,567.35c.42-1.66,1.42-3,3.25-3.05,2.13-.07,2.6,1.56,2.6,3.36,0,2-1.19,2.49-2.9,2.38S1214.17,569.24,1214,567.35Z"/><path class="cls-7" d="M1188.16,714a2.62,2.62,0,0,1-2.86-2.75,2.9,2.9,0,0,1,3.2-3c1.82,0,2.35,1.5,2.38,3.16C1190.93,713.32,1190,714.17,1188.16,714Z"/><path class="cls-7" d="M1275,507.1c1.66.14,2.93.9,2.7,2.77a2.87,2.87,0,0,1-3,2.79,2.57,2.57,0,0,1-2.74-2.88C1272.06,508,1273.15,507.15,1275,507.1Z"/><path class="cls-7" d="M1216.64,622.1c2.11.11,3.12,1,3.16,2.81s-.69,3-2.57,3a3,3,0,0,1-3-2.81A2.72,2.72,0,0,1,1216.64,622.1Z"/><path class="cls-7" d="M1246,541.07c-1.9-.17-3.13-.92-2.93-2.78s1.68-2.23,3.28-2.23,2.54.68,2.42,2.37A2.66,2.66,0,0,1,1246,541.07Z"/><path class="cls-7" d="M1190.86,596.13c-.12,1.64-.82,2.89-2.64,2.76s-2.42-1.45-2.32-3.1a2.38,2.38,0,0,1,2.39-2.55C1190.1,593.22,1190.79,594.44,1190.86,596.13Z"/><path class="cls-7" d="M1246.51,420.09q.62,3,1.22,6c-2.18,0-4.6.27-4.77-2.87C1242.84,420.83,1244.39,420.05,1246.51,420.09Z"/><path class="cls-7" d="M701.85,279.08c-.12,2-1.2,3-3.18,2.93a2.92,2.92,0,0,1,0-5.81C700.61,276.08,701.7,277.09,701.85,279.08Z"/><path class="cls-7" d="M669.76,311a2.75,2.75,0,0,1-2.73-3.33,2.6,2.6,0,0,1,3.05-2.51c2.06.1,2.92,1.37,2.74,3.3C672.67,310.23,671.52,311,669.76,311Z"/><path class="cls-7" d="M672.86,423.16C672.72,425,671.8,426,670,426a2.68,2.68,0,0,1-3-3,2.6,2.6,0,0,1,2.8-2.78C671.83,420.15,672.8,421.26,672.86,423.16Z"/><path class="cls-7" d="M699.08,455c-2,0-3.1-1-3.08-3a2.6,2.6,0,0,1,2.72-2.85,2.63,2.63,0,0,1,3.08,2.49A2.74,2.74,0,0,1,699.08,455Z"/><path class="cls-7" d="M669.8,478.11c2.07.17,3,1.14,3,2.89a2.67,2.67,0,0,1-3.09,3,2.6,2.6,0,0,1-2.73-2.84A2.7,2.7,0,0,1,669.8,478.11Z"/><path class="cls-7" d="M698.77,564.16c1.74,0,2.88.83,3,2.58A2.68,2.68,0,0,1,699,570a2.56,2.56,0,0,1-3-2.54A2.74,2.74,0,0,1,698.77,564.16Z"/><path class="cls-7" d="M698.81,391.37c1.71.42,3,1.46,2.93,3.29s-1.39,2.45-3,2.37a2.57,2.57,0,0,1-2.7-2.79C695.94,392.37,697.29,391.83,698.81,391.37Z"/><path class="cls-7" d="M701.79,509.78c-.37,1.53-1.24,2.86-2.9,2.88a2.78,2.78,0,1,1,2.9-2.88Z"/><path class="cls-7" d="M699,334.13c1.66.11,2.93.88,2.71,2.74a2.9,2.9,0,0,1-2.94,2.84,2.59,2.59,0,0,1-2.77-2.87C696.1,335,697.16,334.19,699,334.13Z"/><path class="cls-7" d="M670.11,247.43c1.6.48,2.91,1.14,2.71,3a2.61,2.61,0,0,1-3,2.56c-1.73-.08-2.94-.95-2.64-2.81A3.25,3.25,0,0,1,670.11,247.43Z"/><path class="cls-7" d="M672.83,538.12a2.6,2.6,0,0,1-2.62,2.89c-1.67.12-2.88-.58-3.14-2.34-.29-2,.85-2.62,2.59-2.61C671.16,536.06,672.7,536,672.83,538.12Z"/><path class="cls-7" d="M672.8,365.56a2.62,2.62,0,0,1-3.08,2.5c-1.53-.06-2.63-.86-2.62-2.43,0-1.85,1.32-2.57,3-2.5A2.51,2.51,0,0,1,672.8,365.56Z"/><path class="cls-7" d="M810.7,397a.29.29,0,0,1-.09-.45c.63-2.14-.36-5.41,3.52-5.34a2.48,2.48,0,0,1,2.65,2.88C816.38,398.31,813.08,396.78,810.7,397Z"/><path class="cls-7" d="M843,311c-1.82,0-2.9-.86-3-2.62-.15-2,.81-3.15,2.83-3.21a2.59,2.59,0,0,1,3,2.59A2.71,2.71,0,0,1,843,311Z"/><path class="cls-7" d="M816.82,337.35a2.73,2.73,0,0,1-3.4,2.59,2.62,2.62,0,0,1-2.43-3.12c.16-2,1.47-2.85,3.39-2.64S816.85,335.59,816.82,337.35Z"/><path class="cls-7" d="M845.79,365.44c-.3,1.81-1.19,3.27-3.12,3.23a2.71,2.71,0,0,1-2.78-2.9c-.07-2.1,1.07-3.22,2.93-3.25C844.5,362.5,845.35,363.86,845.79,365.44Z"/><path class="cls-7" d="M842.68,541.73c-2-.52-3-1.59-2.77-3.62a2.66,2.66,0,0,1,3-2.61,2.91,2.91,0,0,1,2.71,3.5A3.2,3.2,0,0,1,842.68,541.73Z"/><path class="cls-7" d="M845.72,596c-.49,1.57-1,3.16-3.17,3a2.58,2.58,0,0,1-2.59-2.91c0-2,1.15-3,3.09-2.91A2.51,2.51,0,0,1,845.72,596Z"/><path class="cls-7" d="M845.74,480.88c-.48,1.65-1.47,3-3.32,3-2.12,0-2.53-1.68-2.51-3.47,0-2,1.35-2.38,3-2.29A2.65,2.65,0,0,1,845.74,480.88Z"/><path class="cls-7" d="M845.76,423.37a2.64,2.64,0,0,1-3,2.65,2.57,2.57,0,0,1-2.8-2.77c-.06-1.7.68-3,2.51-3S845.33,421.68,845.76,423.37Z"/><path class="cls-7" d="M845.76,250.68c-.35,1.81-1.55,2.38-3.21,2.42-1.88,0-2.69-.84-2.64-2.69a2.71,2.71,0,0,1,3.22-2.87A3.19,3.19,0,0,1,845.76,250.68Z"/><path class="cls-7" d="M755.86,449.15c1.82.05,2.89.9,3,2.67.1,2-.85,3.14-2.89,3.17a2.61,2.61,0,0,1-2.92-2.65A2.71,2.71,0,0,1,755.86,449.15Z"/><path class="cls-7" d="M787.85,596.09a2.65,2.65,0,0,1-2.71,2.89c-2,.09-3.14-.91-3.13-2.93s1.21-3,3.18-2.89A2.67,2.67,0,0,1,787.85,596.09Z"/><path class="cls-7" d="M756.38,507.07c1.92,0,2.6,1,2.52,2.78s-.7,3.06-2.49,3a3.16,3.16,0,0,1-3.25-3.51C753.28,507.52,754.79,507.08,756.38,507.07Z"/><path class="cls-7" d="M758.89,566.87C758.75,569,757.82,570,756,570a2.59,2.59,0,0,1-2.73-2.9,2.94,2.94,0,0,1,3-2.82C758.19,564.16,758.76,565.56,758.89,566.87Z"/><path class="cls-7" d="M755.94,622.12c1.84.08,2.86,1,2.91,2.78s-.68,3-2.56,3a2.92,2.92,0,0,1-3-2.79A2.65,2.65,0,0,1,755.94,622.12Z"/><path class="cls-9" d="M247,465.59c-4.26,2.26-8.53,4.48-12.76,6.79a6.26,6.26,0,0,1-6.2.06c-4.44-2.27-8.89-4.52-13.34-6.79.91-10.95,0-21.64-4.84-31.71,1.46-3.52,2.82-7.08,4.41-10.54,1.19-2.62,1.94-4.64-.27-7.53-3-4-.79-10,3.79-11.45,2.65-.81,5.25-1.59,5.58,3.2A36.81,36.81,0,0,0,230,426.18c0-11.79.1-22.35-.06-32.9-.05-3,.47-4.46,3.92-4.44,4.81,0,9.61-.59,14.42-.92,8.71-.58,8.7-.58,11.23-9,.15-.48.16-1.34,1.7-1.1,1.54,8.79,7.74,9.85,15.34,8.33a11,11,0,0,1,2.49.05c3.71,13.6,1.31,27.49,2,41.23a14.73,14.73,0,0,1-2.22,8.07c-3.43,6.17-8.65,9.51-15.74,9.71-4,.11-8,0-12,.07-2.8,0-4.19,1.3-4.1,4.34C247.13,454.92,247,460.25,247,465.59Zm9.65-41.27c-1.66,0-3.31,0-5,0-3.89.12-4.73,1.59-2.81,4.83a8.71,8.71,0,0,0,13.28,2.17c1.61-1.47,3.33-3.24,2.63-5.54-.8-2.65-3.38-1.09-5.16-1.43A15.47,15.47,0,0,0,256.63,424.32Z"/><path class="cls-8" d="M279,386.17a11,11,0,0,0-2.49-.05c-7.6,1.52-13.8.46-15.34-8.33-1.54-.24-1.55.62-1.7,1.1-2.53,8.45-2.52,8.45-11.23,9-4.81.33-9.61.93-14.42.92-3.45,0-4,1.44-3.92,4.44.16,10.55.06,21.11.06,32.9a36.81,36.81,0,0,1-6.61-18.56c-.33-4.79-2.93-4-5.58-3.2-4.58,1.41-6.83,7.48-3.79,11.45,2.21,2.89,1.46,4.91.27,7.53-1.59,3.46-2.95,7-4.41,10.54-9.53-17.29-18.74-34.67-11.92-55.43a42.19,42.19,0,0,1,17-22.14c2.29-1.54,3.38-2.82,3.1-5.88-.83-9,4.54-15.58,13.22-16.9,8-1.21,15.15,3.85,17,12.48.57,2.7,1.76,3.62,4.34,4.4,15.81,4.77,25.56,15.36,29.57,31.4C283,385.07,281.94,386.13,279,386.17Z"/><path class="cls-6" d="M154.82,362.26c-11.86.05-11.86.05-11.86-11.67,0-8.49,0-8.49,8.55-8.5h.5c4.92.34,12.48-2.12,14.16.89,2.48,4.45.79,11.21,1,17,.07,2.22-1.23,2.33-2.87,2.31C161.13,362.23,158,362.26,154.82,362.26Z"/><path class="cls-7" d="M237.84,276.17c1.94.06,3.06,1,3,3.05a2.92,2.92,0,0,1-5.81.27A2.74,2.74,0,0,1,237.84,276.17Z"/><path class="cls-7" d="M211.9,308c-.05,1.92-1,3-3,3a2.6,2.6,0,0,1-2.8-2.78,2.66,2.66,0,0,1,3-3C210.84,305.2,211.76,306.19,211.9,308Z"/><path class="cls-7" d="M267.25,311c-2.09-.09-3.13-1-3.23-2.72a2.66,2.66,0,0,1,2.92-3.13,2.59,2.59,0,0,1,2.89,2.67A2.71,2.71,0,0,1,267.25,311Z"/><path class="cls-7" d="M180.26,455c-2.19-.12-3.25-1.15-3.17-3.14a2.6,2.6,0,0,1,2.86-2.71c2,0,3,1.11,3,3.09A2.65,2.65,0,0,1,180.26,455Z"/><path class="cls-7" d="M182.94,337c-.11,1.64-.79,3-2.6,2.85a3.2,3.2,0,0,1-3.14-3.17c-.08-2.14,1.57-2.58,3.37-2.58C182.54,334.11,183.05,335.3,182.94,337Z"/><path class="cls-7" d="M151.53,478.11a2.63,2.63,0,0,1,3,2.6,2.89,2.89,0,0,1-3.05,3.15c-1.84.07-2.43-1.35-2.5-3C148.9,479.06,149.59,478,151.53,478.11Z"/><path class="cls-7" d="M182.92,394.08c-.09,2.05-1.17,3-3.15,2.95-1.51-.06-2.63-.87-2.6-2.39a3.28,3.28,0,0,1,3.06-3.31C182.07,391.13,182.8,392.43,182.92,394.08Z"/><path class="cls-7" d="M324.68,478.1c1.78-.05,2.36,1.11,2.25,2.86s-.74,3-2.61,2.9a2.88,2.88,0,0,1-3-2.76C321.31,479.27,322.4,478,324.68,478.1Z"/><path class="cls-7" d="M324.07,363.09c1.77-.12,2.82.49,2.89,2.45a2.76,2.76,0,0,1-2.52,3.11c-1.93.23-3.1-1.16-3.25-2.95S322.42,363.2,324.07,363.09Z"/><path class="cls-7" d="M295.48,334.12a2.62,2.62,0,0,1,3,2.53c.21,1.94-1.2,3.09-3,3.21s-2.48-1.27-2.57-2.94S293.5,334.05,295.48,334.12Z"/><path class="cls-7" d="M326.92,422.91c0,1.81-.78,2.93-2.6,3.1a2.62,2.62,0,0,1-3-2.66c-.15-1.72,1.17-2.77,2.73-3C325.94,420,326.73,421.26,326.92,422.91Z"/><path class="cls-7" d="M152,426c-1.82,0-2.88-.9-3-2.7s.61-3.05,2.47-3a2.92,2.92,0,0,1,3,2.72A2.63,2.63,0,0,1,152,426Z"/><path class="cls-7" d="M297.89,393.13c.16,2.82-.41,3.93-2.36,3.95s-2.65-.89-2.59-2.7c.06-1.66.66-3,2.45-3.06A2.26,2.26,0,0,1,297.89,393.13Z"/><path class="cls-7" d="M298,451.8c-.13,1.9-.79,3.05-2.39,3.1C293.7,455,293,453.69,293,452c0-1.51.74-2.64,2.33-2.7C297.24,449.18,297.82,450.54,298,451.8Z"/><path class="cls-9" d="M240.38,605.74c-2.55,1.41-6.16.42-7.5,4.77-.82,2.63-4.2,1.37-6.53.17-2.56-1.32-5.42-4.58-6.86,1.45-.49,2.08-3.23,2.44-5.55,1.23-2.47-1.29-5.06-2.38-7.6-3.55-12-8.2-12-8.2-5.43-21.31,4.87-9.76,10.37-12.1,20.65-8,6,2.41,11.59,5.72,17.36,8.65,1.54.78,3.59,2.82,2.75,3.61C237.3,596.91,242.6,601.67,240.38,605.74Z"/><path class="cls-2" d="M278.66,599c2.53-5,6.61-7.14,12.19-6.92,4.65.19,9.32.06,14,.07,0,4.78,1.65,8.52,6.32,10.46a2.63,2.63,0,0,0-.24.58c0,.06.14.17.21.25l-30.67.07h0C275.87,603.56,278.81,600.64,278.66,599Z"/><path class="cls-12" d="M280.46,603.46h0Z"/><path class="cls-11" d="M370.69,570.43a8.63,8.63,0,0,1-8.59-8.55,8.75,8.75,0,0,1,8.86-8.81,8.68,8.68,0,0,1-.27,17.36Z"/><path class="cls-7" d="M1329.16,392.18c1.94-.43,4.28-2.3,5.44.85.83,2.26-.24,3.85-2.8,4.14Z"/><path class="cls-7" d="M1386.91,279.19c0-1.91,1-3,3-3a2.6,2.6,0,0,1,2.81,2.77,2.66,2.66,0,0,1-3,3C1388,282,1387.05,281,1386.91,279.19Z"/><path class="cls-7" d="M1363.81,308.09c-.24,2.2-1.45,3.09-3.38,2.89a2.62,2.62,0,0,1-2.49-3.07c.12-2.06,1.42-2.89,3.34-2.72A2.66,2.66,0,0,1,1363.81,308.09Z"/><path class="cls-7" d="M1419,305.14c1.68.2,3,1,2.64,2.82a3.26,3.26,0,0,1-3.41,3c-1.55-.05-2.27-1.21-2.29-2.71C1415.86,306.17,1417,305.22,1419,305.14Z"/><path class="cls-7" d="M1392.76,336.74c-.54,1.82-1.57,3.15-3.42,3.14s-2.52-1.38-2.41-3.08a2.62,2.62,0,0,1,2.92-2.66A2.65,2.65,0,0,1,1392.76,336.74Z"/><path class="cls-7" d="M1421.75,596.18a2.73,2.73,0,0,1-3.26,2.8,2.59,2.59,0,0,1-2.58-3c.06-2.06,1.29-3,3.24-2.83C1420.91,593.29,1421.72,594.42,1421.75,596.18Z"/><path class="cls-7" d="M1450.58,566.86c-.41,1.72-.9,3.14-2.82,3.14a2.6,2.6,0,0,1-2.88-2.74c-.07-1.73.69-3,2.55-3C1449.14,564.28,1449.94,565.6,1450.58,566.86Z"/><path class="cls-7" d="M1507.78,567c0,1.78-.83,2.91-2.59,3-1.92.14-3.17-.74-3.25-2.8a2.62,2.62,0,0,1,2.57-3A2.73,2.73,0,0,1,1507.78,567Z"/><path class="cls-7" d="M1536.78,596.24a2.67,2.67,0,0,1-2.92,2.74c-2,0-3-1.15-2.93-3.13a2.59,2.59,0,0,1,2.88-2.7C1535.85,593.16,1536.76,594.33,1536.78,596.24Z"/><path class="cls-7" d="M1504.74,622.1c2.06.18,3,1.14,3,2.89a2.66,2.66,0,0,1-3.09,3,2.61,2.61,0,0,1-2.73-2.85A2.69,2.69,0,0,1,1504.74,622.1Z"/><path class="cls-11" d="M1271.78,388a17.39,17.39,0,0,1-3,0c-1.65-.28-4.09,1.1-4.78-1.26s.91-4.17,2.64-5.53a7.86,7.86,0,0,1,8.85-1.08c2.71,1.33,5.21,3.54,4.7,6.39-.55,3-3.91,1-6,1.48A10.25,10.25,0,0,1,1271.78,388Z"/><path class="cls-11" d="M256.63,424.32a15.47,15.47,0,0,1,3,0c1.78.34,4.36-1.22,5.16,1.43.7,2.3-1,4.07-2.63,5.54a8.71,8.71,0,0,1-13.28-2.17c-1.92-3.24-1.08-4.71,2.81-4.83C253.32,424.28,255,424.32,256.63,424.32Z"/><path class="cls-7" d="M298,566.64c0,2.06-.23,3.32-2,3.35a2.59,2.59,0,0,1-2.92-2.65c-.11-1.69.6-3,2.43-3.06A2.36,2.36,0,0,1,298,566.64Z"/></g></g></svg>