<svg xmlns="http://www.w3.org/2000/svg" viewBox="0 0 385.81 222.75"><defs><style>.cls-1{fill:#fff;}</style></defs><g id="Layer_2" data-name="Layer 2"><g id="Layer_1-2" data-name="Layer 1"><path class="cls-1" d="M197.06,106.56,109.51,31.27c-.11,1.66-.23,2.61-.23,3.55,0,6.39.08,12.77,0,19.16-.07,6.78-4.34,11-11.09,11q-32.07,0-64.15,0a25.39,25.39,0,0,1-4.53-.35,8.39,8.39,0,0,1-7.1-9.13,8.54,8.54,0,0,1,8-7.76c1.11-.1,2.23,0,3.35,0,17.83,0,35.67-.08,53.51,0,3,0,3.74-.91,3.68-3.78-.18-8.5-.07-17-.07-25.86-1.59-.08-2.86-.2-4.13-.2l-75.09.08c-.71,0-1.42,0-2.13,0C4.88,17.72,1.23,14.59.64,10.3A9.08,9.08,0,0,1,7.33.66,28.07,28.07,0,0,1,14.25,0q94.25,0,188.5.06,76.77,0,153.55,0a39,39,0,0,1,12.51,1.77c11.27,3.92,16.95,12.82,17,25.71q.08,50.78,0,101.55,0,31.62,0,63.24c0,8-2.18,15.08-7.75,21.12A27.32,27.32,0,0,1,357,222.61q-59.3,0-118.58,0c-38.61,0-77.22,0-115.84.14-8.77,0-16.64-1.73-23.14-8a5.35,5.35,0,0,0-3.32-1c-4.87-.11-9.73,0-14.6-.07a9.09,9.09,0,0,1-.6-18.16c2.62-.2,5.27-.13,7.9-.08,1.53,0,2.21-.55,2.21-2.12q0-33.75,0-67.49a5.54,5.54,0,0,0-.41-1.23H87.09l-75.71,0c-1,0-2,0-3-.06-5-.41-8.27-3.57-8.34-7.94a8.75,8.75,0,0,1,8.11-9.29,49.89,49.89,0,0,1,5.47-.15q49.56,0,99.12-.07c5.87,0,11.74-.14,17.62-.2a9.11,9.11,0,0,1,8.42,4.5,8.09,8.09,0,0,1-3.87,12.11,19.15,19.15,0,0,1-6.51,1.2c-6.16.16-12.33.05-18.8.05V191.3ZM121.93,18.21,235.7,115.94,351.34,18.21Zm152.61,89.07,92.52,85.87V30.37l-.87-.65Zm77.13,96.57-70.09-64.8c-1.41,12-5.35,21.86-13.82,29.69a46.16,46.16,0,0,1-29.94,12.48c-12,.59-23-2.74-32.41-10.61S190.79,152.77,189.18,140L123.92,203l.59.81ZM211.86,119.21c-7.94,11.54-5,29,6,37.22,12.85,9.64,29.78,7.6,40-4.51,7.69-9.07,7.52-25.25,1-31.91-6.66,5.57-13.42,11-19.94,16.75-2.53,2.22-4.23,2-6.64-.12C225.64,130.74,218.78,125.08,211.86,119.21Z"/><path class="cls-1" d="M74.44,77.27c21,0,41.91,0,62.87,0,3.57,0,6.62.78,8.78,3.79a8,8,0,0,1,.9,8.6,8.18,8.18,0,0,1-7.71,5c-10.43,0-20.85,0-31.27,0q-47.55.09-95.09.17a35.39,35.39,0,0,1-5.14-.32A8.52,8.52,0,0,1,.17,86c0-4,3.44-7.84,7.75-8.45a28.67,28.67,0,0,1,3.94-.14H74.44Z"/><path class="cls-1" d="M68.74,165.92a10.31,10.31,0,0,1-9.95,9.81,10.44,10.44,0,0,1-10.56-10.3,10.15,10.15,0,0,1,10.14-10A10.41,10.41,0,0,1,68.74,165.92Z"/><path class="cls-1" d="M45.93,214.38a8.73,8.73,0,0,1-9.08-8.91,9.21,9.21,0,0,1,9.2-9.31c4.86,0,9.13,4.38,9.17,9.46C55.25,210.55,51.22,214.36,45.93,214.38Z"/></g></g></svg>