<svg xmlns="http://www.w3.org/2000/svg" viewBox="0 0 36.98 41.4"><defs><style>.cls-1{fill:#001535;}</style></defs><g id="Layer_2" data-name="Layer 2"><g id="Layer_1-2" data-name="Layer 1"><path class="cls-1" d="M18.19,41.34c-4.48,0-9-.14-13.44,0-4.26.18-5.29-2-4.51-5.61a20.78,20.78,0,0,1,1.88-5.11C5.63,23.87,12.85,21,22.78,22.25A16.64,16.64,0,0,1,36.72,35.37c.75,3.71.06,6.22-4.59,6S22.84,41.34,18.19,41.34Zm16.55-2.28c.1-9.91-6.15-15.28-17.07-15.13C8,24.06,2,29.9,2.32,39.06Z"/><path class="cls-1" d="M28.26,10.15A10,10,0,0,1,18.39,20,10,10,0,0,1,8.74,9.45a9.77,9.77,0,1,1,19.52.7ZM26.6,9.76A8,8,0,0,0,18.06,2a8,8,0,0,0-7.67,8.16,8.38,8.38,0,0,0,8,8A8.37,8.37,0,0,0,26.6,9.76Z"/></g></g></svg>